# xmcd
#
# Track frame offsets:
#	182
#	12327
#	22865
#	33320
#	44120
#	57682
#	70907
#	83315
#	104522
#	116827
#	130690
#	142672
#	158082
#	171450
#	185345
#	195567
#
# Disc length: 2773 seconds
#
# Revision: 7
# Processed by: cddbd v1.5.2PL0 Copyright (c) Steve Scherf et al.
# Submitted via: audiograbber 1.83.01
#
DISCID=d50ad310
DTITLE=Various Artist - Play Me The Blues... The Legendary Blues Singers [CD 6-10)
DYEAR=1991
DGENRE=Blues
TTITLE0=John Mayall - Lost And Gone
TTITLE1=Howlin' Wolf - Who's Been Talking
TTITLE2=Eric Clapton - West Coast Idea
TTITLE3=Johnny Guitar Watson - Reconsider Baby
TTITLE4=Memphis Slim - Slim's Blues
TTITLE5=Little Walter - Roller Coaster
TTITLE6=Nina Simone - Do I Move You?
TTITLE7=Mike Bloomfield - Cherry Red
TTITLE8=John Lee Hooker - I'm In The Mood
TTITLE9=Eric Clapton - Draggin' My Tail
TTITLE10=B.B. King - Dark Is The Night - Part 1
TTITLE11=Sonny Boy Williamson - Cross My Heart
TTITLE12=Muddy Waters - Rollin' And Tumblin'
TTITLE13=Howlin' Wolf - Highway 49
TTITLE14=Big Joe Williams - 44" Blues
TTITLE15=Elmore James - Happy Home
EXTD=
EXTT0=
EXTT1=
EXTT2=
EXTT3=
EXTT4=
EXTT5=
EXTT6=
EXTT7=
EXTT8=
EXTT9=
EXTT10=
EXTT11=
EXTT12=
EXTT13=
EXTT14=
EXTT15=
PLAYORDER=
